<svg width="16" height="16" viewBox="0 0 16 16" fill="none" xmlns="http://www.w3.org/2000/svg">
        <path
                d="M7.99974 2.23053C7.68076 2.23053 7.40842 2.34417 7.18273 2.57144C6.95703 2.79871 6.84418 3.07296 6.84418 3.39417V4.5578H6.5553V3.71235C6.5553 3.42144 6.459 3.17447 6.26641 2.97144C6.07381 2.76841 5.83307 2.66689 5.54418 2.66689C5.26733 2.66689 5.0296 2.76689 4.83099 2.96689C4.63238 3.16689 4.53307 3.40629 4.53307 3.68508V7.58508L4.24418 7.31235V5.74871C4.24418 5.4578 4.14789 5.21083 3.95529 5.0078C3.7627 4.80477 3.52196 4.70326 3.23307 4.70326C2.95622 4.70326 2.71849 4.80326 2.51988 5.00326C2.32127 5.20326 2.22196 5.44265 2.22196 5.72144V7.7578C2.22196 8.04265 2.32729 8.29114 2.53793 8.50326L5.33655 11.1942C5.57127 11.4305 5.68863 11.7396 5.68863 12.1214C5.68863 12.279 5.7458 12.4154 5.86016 12.5305C5.97451 12.6457 6.10992 12.7033 6.26641 12.7033H12.0442C12.2007 12.7033 12.3361 12.6457 12.4504 12.5305C12.5648 12.4154 12.622 12.279 12.622 12.1214V11.8942C12.622 11.6457 12.6521 11.4123 12.7122 11.1942L13.6872 7.23053C13.7474 7.01235 13.7775 6.77902 13.7775 6.53053V4.29417C13.7775 4.00326 13.6812 3.75629 13.4886 3.55326C13.296 3.35023 13.0553 3.24871 12.7664 3.24871C12.4896 3.24871 12.2518 3.34871 12.0532 3.54871C11.8546 3.74871 11.7553 3.98811 11.7553 4.26689V4.5578H11.4664V3.42144C11.4664 3.17902 11.3912 2.95932 11.2407 2.76235C11.0902 2.56538 10.8977 2.44265 10.6629 2.39417C10.5787 2.38205 10.5095 2.37599 10.4553 2.37599C10.1784 2.37599 9.94071 2.47599 9.7421 2.67599C9.54349 2.87599 9.44418 3.11538 9.44418 3.39417V4.5578H9.1553V3.44871C9.1553 3.13962 9.05749 2.86841 8.86189 2.63508C8.66629 2.40174 8.41803 2.26992 8.1171 2.23962C8.08701 2.23356 8.04789 2.23053 7.99974 2.23053ZM7.99974 1.06689C8.5053 1.06689 8.95367 1.21841 9.34488 1.52144C9.68793 1.31538 10.0581 1.21235 10.4553 1.21235C10.8104 1.21235 11.1444 1.29417 11.4574 1.4578C11.7703 1.62144 12.0291 1.85174 12.2338 2.14871C12.3963 2.10629 12.5738 2.08508 12.7664 2.08508C13.3683 2.08508 13.8798 2.30174 14.3011 2.73508C14.7224 3.16841 14.9331 3.68811 14.9331 4.29417V6.53053C14.9331 6.83962 14.894 7.1669 14.8157 7.51235L13.8317 11.476C13.7956 11.6214 13.7775 11.8366 13.7775 12.1214C13.7775 12.6063 13.609 13.0184 13.272 13.3578C12.9349 13.6972 12.5257 13.8669 12.0442 13.8669H6.26641C5.76085 13.8669 5.34557 13.6896 5.02057 13.3351C4.69557 12.9805 4.53307 12.5487 4.53307 12.0396L1.75252 9.34871C1.29511 8.90629 1.06641 8.37599 1.06641 7.7578V5.72144C1.06641 5.12144 1.27856 4.6078 1.70286 4.18053C2.12717 3.75326 2.63724 3.53962 3.23307 3.53962C3.29928 3.53962 3.34742 3.54265 3.37752 3.54871C3.41363 2.97296 3.64083 2.48811 4.05911 2.09417C4.4774 1.70023 4.97242 1.50326 5.54418 1.50326C5.85715 1.50326 6.15205 1.56689 6.42891 1.69417C6.86224 1.27599 7.38585 1.06689 7.99974 1.06689Z"
                fill="#000" stroke="#000" />
        <path
                d="M8.04823 2.23053C7.72701 2.23053 7.45277 2.34417 7.2255 2.57144C6.99823 2.79871 6.88459 3.07296 6.88459 3.39417V4.5578H6.59368V3.71235C6.59368 3.42144 6.49671 3.17447 6.30277 2.97144C6.10883 2.76841 5.86641 2.66689 5.5755 2.66689C5.29671 2.66689 5.05732 2.76689 4.85732 2.96689C4.65732 3.16689 4.55732 3.40629 4.55732 3.68508V7.58508L4.26641 7.31235V5.74871C4.26641 5.4578 4.16944 5.21083 3.9755 5.0078C3.78156 4.80477 3.53913 4.70326 3.24822 4.70326C2.96944 4.70326 2.73004 4.80326 2.53004 5.00326C2.33004 5.20326 2.23004 5.44265 2.23004 5.72144V7.7578C2.23004 8.04265 2.3361 8.29114 2.54822 8.50326L5.36641 11.1942C5.60277 11.4305 5.72095 11.7396 5.72095 12.1214C5.72095 12.279 5.77853 12.4154 5.89368 12.5305C6.00883 12.6457 6.14519 12.7033 6.30277 12.7033H12.121C12.2785 12.7033 12.4149 12.6457 12.53 12.5305C12.6452 12.4154 12.7028 12.279 12.7028 12.1214V11.8942C12.7028 11.6457 12.7331 11.4123 12.7937 11.1942L13.7755 7.23053C13.8361 7.01235 13.8664 6.77902 13.8664 6.53053V4.29417C13.8664 4.00326 13.7694 3.75629 13.5755 3.55326C13.3816 3.35023 13.1391 3.24871 12.8482 3.24871C12.5694 3.24871 12.33 3.34871 12.13 3.54871C11.93 3.74871 11.83 3.98811 11.83 4.26689V4.5578H11.5391V3.42144C11.5391 3.17902 11.4634 2.95932 11.3119 2.76235C11.1603 2.56538 10.9664 2.44265 10.73 2.39417C10.6452 2.38205 10.5755 2.37599 10.521 2.37599C10.2422 2.37599 10.0028 2.47599 9.80277 2.67599C9.60277 2.87599 9.50277 3.11538 9.50277 3.39417V4.5578H9.21186V3.44871C9.21186 3.13962 9.11338 2.86841 8.91641 2.63508C8.71944 2.40174 8.46944 2.26992 8.16641 2.23962C8.1361 2.23356 8.09671 2.23053 8.04823 2.23053ZM8.04823 1.06689C8.55732 1.06689 9.00883 1.21841 9.40277 1.52144C9.74822 1.31538 10.121 1.21235 10.521 1.21235C10.8785 1.21235 11.2149 1.29417 11.53 1.4578C11.8452 1.62144 12.1058 1.85174 12.3119 2.14871C12.4755 2.10629 12.6543 2.08508 12.8482 2.08508C13.4543 2.08508 13.9694 2.30174 14.3937 2.73508C14.8179 3.16841 15.03 3.68811 15.03 4.29417V6.53053C15.03 6.83962 14.9906 7.1669 14.9119 7.51235L13.921 11.476C13.8846 11.6214 13.8664 11.8366 13.8664 12.1214C13.8664 12.6063 13.6967 13.0184 13.3573 13.3578C13.0179 13.6972 12.6058 13.8669 12.121 13.8669H6.30277C5.79368 13.8669 5.3755 13.6896 5.04822 13.3351C4.72095 12.9805 4.55732 12.5487 4.55732 12.0396L1.75732 9.34871C1.29671 8.90629 1.06641 8.37599 1.06641 7.7578V5.72144C1.06641 5.12144 1.28004 4.6078 1.70732 4.18053C2.13459 3.75326 2.64822 3.53962 3.24822 3.53962C3.31489 3.53962 3.36338 3.54265 3.39368 3.54871C3.43004 2.97296 3.65883 2.48811 4.08004 2.09417C4.50126 1.70023 4.99974 1.50326 5.5755 1.50326C5.89065 1.50326 6.18762 1.56689 6.46641 1.69417C6.90277 1.27599 7.43004 1.06689 8.04823 1.06689Z"
                fill="#387DD6" />
</svg>